<svg width="512" height="512" viewBox="0 0 512 512" fill="none" xmlns="http://www.w3.org/2000/svg">
<path d="M320.239 214.525C343.156 201.295 372.459 209.146 385.69 232.06C398.92 254.975 391.069 284.275 368.152 297.504L225.991 379.573C203.074 392.803 173.771 384.952 160.54 362.038C147.309 339.124 155.161 309.823 178.078 296.594L320.239 214.525Z" fill="#DAD7CD"/>
<path d="M154.134 173.918C154.134 147.459 175.585 126.01 202.047 126.01C228.508 126.01 249.96 147.459 249.96 173.918V338.057C249.96 364.516 228.508 385.965 202.047 385.965C175.585 385.965 154.134 364.516 154.134 338.057V173.918Z" fill="#588157"/>
<path d="M178.038 215.406C155.122 202.177 147.27 172.876 160.501 149.962C173.732 127.048 203.035 119.197 225.951 132.427L368.113 214.496C391.03 227.725 398.881 257.025 385.651 279.94C372.42 302.854 343.117 310.705 320.2 297.475L178.038 215.406Z" fill="#A3B18A"/>
<path d="M366.565 213.567L368.13 214.471C391.047 227.7 398.898 257 385.667 279.915C372.437 302.829 343.133 310.68 320.217 297.45L248.369 255.973L320.268 214.466C335.052 205.931 352.495 206.17 366.565 213.567Z" fill="#BEC4AB"/>
<path d="M155.615 349.915C154.648 346.12 154.134 342.145 154.134 338.049V337.257C154.418 320.996 162.979 305.283 178.091 296.559L249.96 255.069V338.049C249.96 355.488 240.641 370.751 226.711 379.13L226.004 379.539C222.305 381.674 218.44 383.26 214.503 384.322C210.531 385.389 206.355 385.957 202.047 385.957C200.466 385.957 198.903 385.881 197.362 385.731C190.512 385.052 183.855 382.907 177.882 379.427C172.172 376.086 167.216 371.597 163.33 366.277C162.341 364.917 161.413 363.492 160.554 362.003C158.312 358.121 156.675 354.055 155.615 349.915Z" fill="#98AB90"/>
<path d="M154.162 176.243C154.939 191.955 163.43 206.962 178.068 215.412L249.988 256.931V173.918C249.988 156.844 241.055 141.856 227.608 133.372L225.981 132.433C219.697 128.805 212.932 126.762 206.151 126.181C204.807 126.067 203.448 126.01 202.075 126.01C200.208 126.01 198.367 126.116 196.556 126.324C193.111 126.723 189.72 127.492 186.446 128.616C167.658 135.096 154.162 152.931 154.162 173.918V176.243Z" fill="#7D9970"/>
</svg>
